<svg id="Layer_1" data-name="Layer 1" xmlns="http://www.w3.org/2000/svg" viewBox="0 0 1600 726" style="background-color: #0e9390"><defs><style>.cls-1{fill:#0e9390;}.cls-2{fill:#f4b334;}.cls-3{fill:#ff8d6b;}.cls-4{fill:#074f51;}.cls-5{fill:#98b8ad;}</style></defs><title>Artboard 22</title><polygon class="cls-1" points="1141.5 646.39 1249.18 437.75 1089.23 182.34 813.83 457.74 997.75 721.43 1141.5 646.39"/><polygon class="cls-2" points="1422.44 102.01 1224.1 47.47 1089.23 182.34 1249.18 437.75 1422.44 102.01"/><polygon class="cls-1" points="1475.09 0 1271.57 0 1224.1 47.47 1422.44 102.01 1475.09 0"/><polygon class="cls-3" points="1600 150.84 1600 0 1475.09 0 1422.44 102.01 1600 150.84"/><polygon class="cls-2" points="1429.7 726 1600 726 1600 407.07 1321.13 552.64 1429.7 726"/><polygon class="cls-4" points="1422.44 102.01 1249.18 437.75 1141.5 646.39 1321.13 552.64 1600 407.07 1600 150.84 1422.44 102.01"/><polygon class="cls-2" points="813.83 457.74 545.57 726 988.99 726 997.75 721.43 813.83 457.74"/><polygon class="cls-3" points="1321.13 552.64 1141.5 646.39 997.75 721.43 988.99 726 1000.93 726 1100.42 726 1429.7 726 1321.13 552.64"/><polygon class="cls-5" points="566.61 103.29 494.57 0 368.12 0 284.94 321.09 566.61 103.29"/><polygon class="cls-3" points="700.19 0 494.57 0 566.61 103.29 700.19 0"/><polygon class="cls-5" points="1051.48 0 975.03 0 1089.23 182.34 1224.1 47.47 1271.57 0 1051.48 0"/><polygon class="cls-4" points="0 0 0 234.41 291.53 0 0 0"/><polygon class="cls-4" points="975.03 0 700.19 0 566.61 103.29 813.83 457.74 1089.23 182.34 975.03 0"/><polygon class="cls-2" points="284.94 321.09 368.12 0 291.53 0 0 234.41 0 454.41 68.46 488.49 284.94 321.09"/><polygon class="cls-3" points="68.46 488.49 0 454.41 0 541.42 0 726 180.04 726 221.79 564.82 68.46 488.49"/><polygon class="cls-4" points="221.79 564.82 221.79 564.82 324.3 615.85 221.79 564.82"/><polygon class="cls-4" points="221.79 564.82 180.04 726 545.57 726 324.3 615.85 221.79 564.82"/><polygon class="cls-1" points="566.61 103.29 284.94 321.09 68.46 488.49 221.79 564.82 324.3 615.85 545.57 726 813.83 457.74 566.61 103.29"/></svg>
